<?xml version="1.0" encoding="UTF-8" standalone="no"?><!DOCTYPE svg PUBLIC "-//W3C//DTD SVG 1.1//EN" "http://www.w3.org/Graphics/SVG/1.1/DTD/svg11.dtd"><svg width="100%" height="100%" viewBox="0 0 395 163" version="1.1" xmlns="http://www.w3.org/2000/svg" xmlns:xlink="http://www.w3.org/1999/xlink" xml:space="preserve" xmlns:serif="http://www.serif.com/" style="fill-rule:evenodd;clip-rule:evenodd;stroke-linejoin:round;stroke-miterlimit:2;"><g><path d="M98.061,143.28c-8.038,0.189 -19.749,0.315 -35.131,0.38l-62.93,0l0,-126.723l73.902,0c14.629,0 24.787,0.068 32.01,0.193c10.357,0.179 17.486,2.228 23.161,4.514c2.486,1.001 5.195,2.834 7.773,4.896c-11.37,10.162 -14.412,20.884 -14.412,32.905c0,6.65 0.256,11.847 1.961,16.317c-1.543,0.346 -3.085,0.706 -4.589,1.108c1.943,0.334 3.809,0.709 5.597,1.125c0.165,0.313 0.339,0.623 0.522,0.929c2.281,3.814 5.979,7.424 12.671,10.696l0.009,0.005c3.836,1.867 8.401,3.346 13.366,4.556c1.787,3.422 2.636,7.147 2.636,10.642c0,4.969 -0.389,14.875 -5.607,21.659c-0.439,0.57 -0.903,1.124 -1.392,1.661c-2.807,-0.688 -5.263,-1.604 -7.363,-2.779c-2.439,-1.425 -5.049,-4.232 -8.125,-8.161c-4.575,-5.914 -9.994,-8.823 -15.945,-9.3c0.066,-0.36 0.098,-0.795 0.098,-1.326c0,-3.279 -1.345,-6.062 -4.036,-8.347c-2.69,-2.286 -6.579,-3.95 -11.665,-4.993c-5.087,-1.043 -16.121,-1.565 -33.104,-1.565l-30.141,0l0,24.85l34.555,0c12.287,0 20.471,-0.187 24.551,-0.56c-2.511,3.195 -3.684,6.974 -3.567,11.313c0.138,5.726 1.813,11.114 5.193,16.007Zm-60.732,-99.427l0,25.265l24.466,0c14.545,0 23.583,-0.124 27.114,-0.373c6.39,-0.447 11.413,-1.751 15.07,-3.913c3.657,-2.161 5.486,-5.006 5.486,-8.534c0,-3.379 -1.576,-6.124 -4.729,-8.235c-3.153,-2.112 -7.84,-3.391 -14.062,-3.838c-3.699,-0.248 -14.335,-0.373 -31.906,-0.373l-21.439,0Z" style="fill:#fff;"/></g><g><path d="M275.553,22.436l2.749,-5.306l48.808,0l67.521,126.5l-44.866,0l-10.771,-23.68l-72.452,0l-9.906,23.68l-19.602,0c11.069,-10.16 16.415,-22.497 16.415,-36.756c0,-12.628 -4.824,-17.845 -10.049,-22.381l25.254,-48.74c0.299,-0.219 0.587,-0.444 0.864,-0.676c3.484,-2.92 5.723,-7.039 6.036,-12.641Zm51.695,71.146l-24.975,-46.941l-24.48,46.941l49.455,0Z" style="fill:#fff;"/></g><path d="M98.131,127.135c-0.116,-4.267 1.545,-7.761 5.041,-10.453c3.049,-2.348 6.776,-3.586 11.221,-3.586c5.122,0 9.711,2.337 13.581,7.349c3.62,4.624 6.79,7.824 9.631,9.473c6.279,3.539 15.423,5.172 27.378,5.172c11.728,0 22.627,-2.161 32.69,-6.507c6.303,-2.734 11.998,-5.951 16.174,-9.732c3.587,-3.247 6.042,-6.863 6.309,-11.032c0.022,-0.339 0.078,-0.641 0.007,-0.934c-0.073,-0.302 -0.42,-0.445 -0.87,-0.782c-1.547,-1.158 -4.103,-2.466 -8.223,-4.27l-0.028,-0.012c-9.297,-4.15 -20.639,-7.171 -34.412,-8.845c-12.975,-1.577 -26.543,-3.619 -35.721,-8.084c-5.484,-2.682 -8.596,-5.543 -10.465,-8.669c-2.658,-4.446 -2.745,-9.666 -2.745,-16.776c0,-13.434 4.435,-24.943 22.217,-36.037l0.017,-0.01c15.806,-9.76 35.964,-20.147 62.423,-22.694c16.801,-1.617 26.119,-0.243 36.201,2.095c8.841,2.015 14.623,5.695 17.89,9.34c2.755,3.074 3.879,6.281 3.879,8.925c0,4.47 -1.525,7.744 -4.191,9.979c-2.405,2.016 -5.951,3.235 -10.76,3.235c-3.326,0 -9.152,-0.736 -17.468,-2.269c-7.599,-1.401 -13.486,-2.093 -17.665,-2.028l-0.019,0c-11.913,0.131 -42.102,8.711 -50.426,13.621c-7.321,4.315 -11.291,9.336 -11.291,15.501c0,1.517 0.988,2.681 2.566,3.751c2.592,1.757 6.51,3.064 11.695,4.085l0.023,0.005c4.369,0.885 9.017,1.782 21.358,4.195c18.881,3.692 20.49,4.209 25.859,5.964c3.891,1.272 3.479,1.859 7.759,3.222c4.135,1.317 8.897,5.343 9.956,6.246c5.032,4.292 10.462,8.201 10.462,20.305c0,17.709 -9.331,31.993 -28.424,42.558c-15.781,8.713 -34.074,13.108 -54.895,13.108c-15.121,0 -28.961,-2.497 -41.521,-7.456c-16.855,-6.681 -24.935,-16.297 -25.212,-27.949Z" style="fill:#fff;"/></svg>